<svg width="36px" height="36px" viewBox="0 0 36 36" version="1.1" xmlns="http://www.w3.org/2000/svg" xmlns:xlink="http://www.w3.org/1999/xlink">
    <!-- Generator: Sketch 44 (41411) - http://www.bohemiancoding.com/sketch -->
    <title>logo</title>
    <desc>Created with Sketch.</desc>
    <defs>
        <rect id="path-1" x="0" y="0" width="36" height="36" rx="4"></rect>
    </defs>
    <g id="Symbols" stroke="none" stroke-width="1" fill="none" fill-rule="evenodd">
        <g id="header_bar" transform="translate(-10.000000, -12.000000)">
            <g id="Group-3" transform="translate(-13.000000, 0.000000)">
                <g id="logo" transform="translate(23.000000, 12.000000)">
                    <mask id="mask-2" fill="white">
                        <use xlink:href="#path-1"></use>
                    </mask>
                    <use id="Mask" fill="#FFFFFF" xlink:href="#path-1"></use>
                    <g id="Page-1" mask="url(#mask-2)">
                        <g transform="translate(-8.000000, -6.000000)">
                            <polygon id="Fill-1" fill="#FDCD0C" points="35.0946196 29.8601499 30.4505725 29.86839 17.9204078 27.7753822 13.5183686 45.4258654 31.3393255 45.5700687"></polygon>
                            <polygon id="Fill-2" fill="#EC1A68" points="21.7007373 12.5347421 18.909302 23.782599 30.8052392 25.7767246 36.0209255 25.7437638 36.3380392 23.6095551 36.3505569 23.5601139 36.7344314 21.7802333 36.9347137 21.0509766 37.5731137 18.4264767 38.0487843 16.5188731"></polygon>
                            <polygon id="Fill-3" fill="#139A99" points="37.7304188 29.8519097 37.450858 31.2280211 33.9417443 45.5906692 46.4218384 45.6936715 46.5470149 29.8477896"></polygon>
                            <polygon id="Fill-4" fill="#B8E986" points="7.26747294 5.85689353 7.44272 6.73035348 12.1618729 7.86337937 20.0229553 9.77510304 20.9659514 5.96813607"></polygon>
                            <polygon id="Fill-5" fill="#8C139A" points="42.7345569 7.28203409 40.8569098 14.850647 46.6567529 16.2638393 46.7235137 8.2502562"></polygon>
                            <polygon id="Fill-6" fill="#3C318D" points="40.3103059 17.0656096 38.5995608 23.9914878 38.3408627 25.7342876 46.5858196 25.7301675 46.6442353 18.6024047"></polygon>
                            <polygon id="Fill-7" fill="#FFAD63" points="7.96470588 9.19746584 8.64483137 12.4358598 11.377851 19.7078259 11.7408627 20.193997 16.3640471 23.3582293 16.6394353 23.4076705 19.4684235 11.9950097"></polygon>
                            <polygon id="Fill-8" fill="#9EE3FF" points="6.4 45.3702442 11.1441882 45.4114451 11.3987137 44.3072599 12.1998431 41.2336697 15.6463686 27.4025137 15.2416314 27.328352 13.8271373 26.7721393 8.15664314 22.3636386 7.51824314 21.3459754 6.4 18.7067708"></polygon>
                            <polygon id="Fill-9" fill="#FD340C" points="22.2590243 10.3218395 38.6070714 14.3059705 40.4972361 6.73735764 37.8852204 6.10698324 23.3605773 5.99162061 23.2562635 6.4159903"></polygon>
                            <g id="Page-1" stroke-width="1" fill="none">
                                <polygon id="Fill-1" fill="#FFFFFF" points="0.954545455 47.4702545 47.8636364 47.4702545 47.8636364 0.970254545 0.954545455 0.970254545"></polygon>
                                <polygon id="Fill-2" fill="#FFFFFF" points="4.36363636 44.9317091 43.6363636 44.9317091 43.6363636 5.65898182 4.36363636 5.65898182"></polygon>
                                <polygon id="Fill-3" fill="#FDCD0C" points="11.8033091 44.9313818 30.0574909 44.9313818 34.0905818 28.0397455 29.0451273 27.7255636 16.4713091 26.0542909"></polygon>
                                <polygon id="Fill-4" fill="#EC1A68" points="16.4718545 26.0539636 29.0445818 27.1525091 34.2962182 27.2201455 36.7322182 16.0077818 20.0118545 11.9321455"></polygon>
                                <polygon id="Fill-5" fill="#139A99" points="36.12 31.0514182 32.7283636 44.9310545 43.6363636 44.9310545 43.6363636 27.5594182 36.9545455 27.4252364"></polygon>
                                <polygon id="Fill-6" fill="#B8E986" points="4.36407273 5.65865455 10.2571636 7.15538182 18.2960727 9.11029091 19.1513455 5.65865455"></polygon>
                                <polygon id="Fill-7" fill="#8B139A" points="41.7507273 5.65865455 39.6027273 14.3030182 43.6369091 15.2848364 43.6369091 5.65865455"></polygon>
                                <polygon id="Fill-8" fill="#3C318D" points="36.9545455 27.4255636 43.6363636 27.3175636 43.6363636 17.6815636 39.0447273 16.5666545"></polygon>
                                <polygon id="Fill-9" fill="#FFAC63" points="4.36407273 11.5230545 6.13570909 16.7386909 8.54116364 21.4525091 14.4091636 25.2946909 14.8357091 23.0528727 17.7298909 11.3812364 4.36407273 7.97214545"></polygon>
                                <polygon id="Fill-10" fill="#9EE3FF" points="4.36407273 44.9313818 9.35934545 44.9313818 9.47607273 44.4273818 10.2953455 41.2844727 14.1135273 26.1295636 13.4317091 25.7892 11.9229818 24.3710182 7.63461818 20.2626545 6.58298182 18.5466545 4.36407273 15.6601091"></polygon>
                                <polygon id="Fill-11" fill="#FD340C" points="21.6067636 5.65865455 21.6024 5.67501818 20.5824 9.66992727 37.3027636 13.7444727 39.2958545 5.65865455"></polygon>
                                <path d="M37.5692727,28.4222182 C30.4270909,28.4222182 21.0518182,28.0589455 14.6721818,26.4444 C2.69509091,23.4138545 2.03290909,7.41458182 2.01,6.73494545 L4.18963636,6.66185455 C4.19509091,6.8124 4.82672727,21.7033091 15.2067273,24.3291273 C26.2347273,27.1207636 47.3929091,26.0124 47.6078182,26.0014909 L47.7256364,28.1811273 C47.3394545,28.2018545 43.1307273,28.4222182 37.5692727,28.4222182" id="Fill-12" fill="#FFFFFF"></path>
                            </g>
                        </g>
                    </g>
                </g>
            </g>
        </g>
    </g>
</svg>
