<?xml version="1.0" encoding="UTF-8" standalone="no"?>
<svg width="82px" height="84px" viewBox="0 0 82 84" version="1.1" xmlns="http://www.w3.org/2000/svg" xmlns:xlink="http://www.w3.org/1999/xlink">
    <!-- Generator: Sketch 44 (41411) - http://www.bohemiancoding.com/sketch -->
    <title>noun_1021525_cc</title>
    <desc>Created with Sketch.</desc>
    <defs></defs>
    <g id="Page-1" stroke="none" stroke-width="1" fill="none" fill-rule="evenodd">
        <g id="noun_1021525_cc" fill-rule="nonzero" fill="#000000">
            <path d="M81.132,0.977 C80.589,0.603 79.898,0.522 79.282,0.759 L54,10.482 L28.718,0.758 C28.715,0.757 28.712,0.757 28.709,0.756 C28.619,0.722 28.525,0.708 28.433,0.687 C28.369,0.672 28.305,0.648 28.24,0.64 C28.16,0.63 28.08,0.639 28,0.639 C27.92,0.639 27.84,0.63 27.761,0.64 C27.693,0.648 27.627,0.673 27.559,0.689 C27.47,0.71 27.379,0.723 27.292,0.756 C27.289,0.757 27.285,0.757 27.282,0.758 L1.282,10.758 C0.51,11.055 0,11.797 0,12.625 L0,81.375 C0,82.034 0.324,82.65 0.868,83.023 C1.206,83.255 1.601,83.375 2,83.375 C2.242,83.375 2.485,83.331 2.718,83.242 L28,73.518 L53.282,83.242 C53.31,83.253 53.342,83.257 53.37,83.267 C53.405,83.279 53.439,83.287 53.474,83.296 C53.647,83.343 53.823,83.375 53.999,83.375 C54.175,83.375 54.352,83.343 54.524,83.296 C54.559,83.286 54.593,83.278 54.628,83.267 C54.656,83.257 54.688,83.253 54.716,83.242 L80.716,73.242 C81.49,72.945 82,72.203 82,71.375 L82,2.625 C82,1.966 81.676,1.35 81.132,0.977 Z M4,13.999 L26,5.538 L26,70.002 L4,78.463 L4,13.999 Z M30,5.537 L52,13.998 L52,78.462 L30,70.001 L30,5.537 Z M78,70.001 L56,78.462 L56,13.999 L78,5.538 L78,70.001 Z" id="Shape"></path>
        </g>
    </g>
</svg>