<?xml version="1.0" encoding="UTF-8" standalone="no"?>
<svg width="24px" height="24px" viewBox="0 0 24 24" version="1.1" xmlns="http://www.w3.org/2000/svg" xmlns:xlink="http://www.w3.org/1999/xlink">
    <!-- Generator: Sketch 44 (41411) - http://www.bohemiancoding.com/sketch -->
    <title>nearby</title>
    <desc>Created with Sketch.</desc>
    <defs></defs>
    <g id="Page-1" stroke="none" stroke-width="1" fill="none" fill-rule="evenodd">
        <g id="noun_605473_cc" fill-rule="nonzero" fill="#000000">
            <g id="Group">
                <path d="M12,0 C5.373,0 0,5.373 0,12 C0,18.627 5.373,24 12,24 C14.235,24 16.32,23.377 18.113,22.313 C17.847,22.096 17.621,21.839 17.442,21.546 C15.836,22.466 13.98,23 12,23 C5.935,23 1,18.065 1,12 C1,5.935 5.935,1 12,1 C18.064,1 23,5.935 23,12 C23,13.981 22.467,15.835 21.547,17.442 C21.84,17.62 22.096,17.848 22.313,18.112 C23.377,16.321 24,14.235 24,12 C24,5.373 18.627,0 12,0 Z" id="Shape"></path>
                <path d="M5,12 C5,12.061 5.008,12.121 5.01,12.182 C5.32,12.071 5.65,12 6,12 C6,8.691 8.691,6 12,6 C12,5.651 12.071,5.321 12.182,5.009 C12.121,5.008 12.061,5 12,5 C8.134,5 5,8.134 5,12 Z" id="Shape"></path>
                <path d="M19,12 C19,10.362 18.434,8.86 17.492,7.668 C17.302,7.951 17.058,8.192 16.786,8.396 C17.545,9.401 18,10.648 18,12 C18,15.309 15.309,18 12,18 C10.646,18 9.401,17.544 8.396,16.786 C8.192,17.058 7.951,17.302 7.668,17.492 C8.859,18.434 10.362,19 12,19 C15.866,19 19,15.866 19,12 Z" id="Shape"></path>
                <circle id="Oval" cx="12" cy="12" r="2"></circle>
                <circle id="Oval" cx="15" cy="6" r="2"></circle>
                <circle id="Oval" cx="6" cy="15" r="2"></circle>
                <circle id="Oval" cx="20" cy="20" r="2"></circle>
            </g>
        </g>
    </g>
</svg>