<?xml version="1.0" encoding="UTF-8" standalone="no"?>
<svg width="328px" height="508px" viewBox="0 0 328 508" version="1.1" xmlns="http://www.w3.org/2000/svg" xmlns:xlink="http://www.w3.org/1999/xlink">
    <!-- Generator: Sketch 44 (41411) - http://www.bohemiancoding.com/sketch -->
    <title>noun_565122_cc</title>
    <desc>Created with Sketch.</desc>
    <defs></defs>
    <g id="Page-1" stroke="none" stroke-width="1" fill="none" fill-rule="evenodd">
        <g id="noun_565122_cc" fill-rule="nonzero" fill="#000000">
            <g id="Group">
                <path d="M327.9,196.6 L311.5,196.6 L311.5,0 L73.9,0 L73.9,13 L60.9,0 L16.5,0 L16.5,196.6 L0.1,196.6 L0.1,278.5 L122.1,278.5 L104.6,441.8 C100.9,462.4 117,508 164,508 C210.2,508 227.2,463.8 223.4,441.9 L205.9,278.6 L327.9,278.6 L327.9,196.6 Z M213.2,53.3 C213.2,60.1 207.7,65.6 200.9,65.6 C194.1,65.6 188.6,60.1 188.6,53.3 L188.6,16.4 L213.2,16.4 L213.2,53.3 Z M229.5,16.4 L254.1,16.4 L254.1,77.9 C254.1,84.7 248.6,90.2 241.8,90.2 C235,90.2 229.5,84.7 229.5,77.9 L229.5,16.4 Z M32.9,16.4 L54.1,16.4 L90.3,52.6 L90.3,16.4 L172.2,16.4 L172.2,53.3 C172.2,69.1 185.1,82 200.9,82 C205.4,82 209.5,80.9 213.3,79.1 C213.9,94.4 226.4,106.6 241.9,106.6 C257.7,106.6 270.6,93.7 270.6,77.9 L270.6,16.4 L295.2,16.4 L295.2,196.7 L32.9,196.7 L32.9,16.4 Z M207.1,443.7 C211.4,465.8 188.7,492.6 164,491.7 C126.4,490.2 119.6,455.9 120.9,443.7 L138.6,278.6 L189.4,278.6 L207.1,443.7 Z M311.5,262.2 L16.5,262.2 L16.5,213 L311.5,213 L311.5,262.2 Z" id="Shape"></path>
                <path d="M164,475.2 C177.6,475.2 188.6,464.2 188.6,450.6 C188.6,437 177.6,426 164,426 C150.4,426 139.4,437 139.4,450.6 C139.4,464.2 150.4,475.2 164,475.2 Z M164,442.5 C168.5,442.5 172.2,446.2 172.2,450.7 C172.2,455.2 168.5,458.9 164,458.9 C159.5,458.9 155.8,455.2 155.8,450.7 C155.8,446.1 159.5,442.5 164,442.5 Z" id="Shape"></path>
                <rect id="Rectangle-path" x="155.8" y="229.4" width="16.4" height="16.4"></rect>
                <rect id="Rectangle-path" x="188.6" y="229.4" width="16.4" height="16.4"></rect>
                <rect id="Rectangle-path" x="123" y="229.4" width="16.4" height="16.4"></rect>
            </g>
        </g>
    </g>
</svg>